<?xml version="1.0" encoding="utf-8"?>
<!-- Generator: Adobe Illustrator 28.3.0, SVG Export Plug-In . SVG Version: 6.00 Build 0)  -->
<svg version="1.1" id="Layer_1" xmlns="http://www.w3.org/2000/svg" xmlns:xlink="http://www.w3.org/1999/xlink" x="0px" y="0px"
	 viewBox="0 0 512 512" style="enable-background:new 0 0 512 512;" xml:space="preserve">
<style type="text/css">
	.st0{fill:#FFFFFF;}
	.st1{fill:#000095;}
	.st2{fill:#FE0000;}
	.st3{fill:#333399;}
	.st4{fill:#CC3333;}
	.st5{fill:#FFFF00;}
	.st6{fill:#339933;}
</style>
<circle class="st0" cx="256" cy="256" r="256"/>
<g>
	<g id="g8">
		<circle id="circle4" class="st1" cx="256" cy="192.1" r="62.3"/>
		<path id="path6" class="st1" d="M56.1,188.9c14.5-44.6,57-72.4,101.7-70.2c11.7-43.2,51.2-75,98.2-75s86.5,31.8,98.2,75
			c44.7-2.2,87.2,25.5,101.7,70.2c14.5,44.6-3.5,92-41,116.5c15.9,41.9,2.7,90.8-35.3,118.4c-38,27.6-88.6,25.1-123.5-3
			c-34.9,28.1-85.6,30.6-123.5,3c-38-27.6-51.2-76.6-35.3-118.4C59.7,281,41.6,233.6,56.1,188.9L56.1,188.9 M148,105.2
			c-46.7,2-89.4,32.5-104.7,79.5c-15.3,47.1,1.3,96.9,38,125.9c-12.5,45,3.3,95.1,43.3,124.2c40,29.1,92.5,28.6,131.5,2.8
			c39,25.8,91.5,26.3,131.5-2.8c40-29.1,55.8-79.1,43.3-124.2c36.6-29.1,53.3-78.8,38-125.9c-15.3-47.1-58-77.6-104.7-79.5
			c-16.3-43.8-58.5-75-108-75C206.5,30.2,164.3,61.4,148,105.2L148,105.2"/>
	</g>
	<g id="g14">
		<circle id="circle10" class="st0" cx="256" cy="192" r="22.4"/>
		<path id="path12" class="st0" d="M256,147.1l5.2,20c-1.5-0.4-3.5-0.7-5.2-0.7s-3.7,0.2-5.2,0.7L256,147.1 M263.8,167.8l14.6-14.8
			l-5.4,20C270.4,170.9,267.3,168.9,263.8,167.8 M274.9,175l20-5.4l-14.8,14.6C279.1,180.7,277.3,177.6,274.9,175 M281,186.8l20,5.2
			l-20,5.4c0.2-1.7,0.4-3.5,0.4-5.4C281.5,190.3,281.3,188.5,281,186.8 M280.2,199.8l14.8,14.8l-20-5.4
			C277.3,206.6,279.1,203.3,280.2,199.8L280.2,199.8 M273,211l5.4,20l-14.6-14.6C267.3,215.3,270.4,213.4,273,211L273,211
			 M261.2,217.1l-5.2,20l-5.2-20c1.5,0.4,3.5,0.4,5.2,0.4C257.7,217.5,259.7,217.5,261.2,217.1 M248.1,216.4L233.6,231l5.4-20
			C241.6,213.4,244.7,215.3,248.1,216.4L248.1,216.4 M237,209.2l-20,5.4l14.8-14.8C232.9,203.3,234.6,206.6,237,209.2L237,209.2
			 M230.9,197.4l-20-5.4l20-5.2c-0.2,1.7-0.4,3.5-0.4,5.2C230.5,194,230.7,195.7,230.9,197.4 M231.8,184.2L217,169.6l20,5.4
			C234.6,177.6,232.9,180.7,231.8,184.2 M239,173.1l-5.4-20l14.6,14.8C244.7,168.9,241.6,170.9,239,173.1"/>
	</g>
	<path id="path16" class="st2" d="M80.4,196.9c13-40,55.9-61.8,95.9-48.9c1.2,0.4,2.4,0.8,3.6,1.3c-0.1-1.3-0.1-2.6-0.1-3.8
		c0-42,34.1-76.1,76.1-76.1s76.1,34.1,76.1,76.1c0,1.3,0,2.6-0.1,3.8c1.2-0.5,2.4-0.9,3.6-1.3c40-13,82.9,8.9,95.9,48.9
		c13,40-8.9,82.9-48.9,95.9c-1.2,0.4-2.5,0.8-3.7,1.1c0.8,1,1.6,2,2.3,3.1c24.7,34,17.2,81.6-16.8,106.3
		c-34,24.7-81.6,17.2-106.3-16.8c-0.8-1-1.5-2.1-2.2-3.2c-0.7,1.1-1.4,2.1-2.2,3.2c-24.7,34-72.3,41.5-106.3,16.8
		c-34-24.7-41.5-72.3-16.8-106.3c0.8-1,1.5-2.1,2.3-3.1c-1.2-0.3-2.5-0.7-3.7-1.1C89.3,279.8,67.4,236.8,80.4,196.9L80.4,196.9
		 M167.3,131.9c-43-7.1-85.9,18.1-99.8,60.8c-13.9,42.7,6,88.3,45,107.8c-20.1,38.7-9.4,87.3,27,113.7
		c36.3,26.4,85.8,21.5,116.4-9.5c30.6,31,80.1,35.9,116.4,9.5c36.3-26.4,47-75,27-113.7c39-19.5,58.9-65.1,45-107.8
		c-13.9-42.7-56.8-67.9-99.8-60.8c-6.5-43.1-43.7-76.1-88.6-76.1S173.8,88.8,167.3,131.9L167.3,131.9"/>
	<g id="g857" transform="matrix(0.262245,0,0,0.26149395,318.874,341.52)">
		<path id="path843" class="st3" d="M-406.3-109.1c0,3.1-0.1,6.2-0.3,9.2c-3.4,48.3-33.1,89.4-75,108.9c-0.9-5.1-1.3-10.4-1.3-15.8
			c0-9.2,1.3-18.2,3.8-26.6c16-12.1,28-29.2,33.8-49c2.5-8.5,3.8-17.4,3.8-26.6c0-5.4-0.5-10.6-1.3-15.8
			c-7.5-44.9-46.6-79.1-93.6-79.1c-52.4,0-94.9,42.5-94.9,94.9c0,52.4,42.5,94.9,94.9,94.9c6.4,0,12.6-0.6,18.6-1.8
			c-0.2,3-0.3,6.1-0.3,9.2c0,9,0.9,17.7,2.6,26.2c-6.8,1.1-13.8,1.7-20.9,1.7c-71.9,0-130.1-58.3-130.1-130.1
			c0-71.9,58.3-130.1,130.1-130.1c62.9,0,115.4,44.6,127.5,104C-407.2-126.9-406.3-118.1-406.3-109.1z"/>
		<path id="path845" class="st4" d="M186.7-109.1C186.7-37.3,128.5,21,56.6,21c-7,0-13.9-0.6-20.6-1.6c1.7-8.5,2.6-17.3,2.6-26.2
			c0-3.1-0.1-6.1-0.3-9.1c5.9,1.2,12,1.8,18.3,1.8c52.4,0,94.9-42.5,94.9-94.9c0-52.4-42.5-94.9-94.9-94.9c-47,0-86,34.2-93.6,79
			c-0.9,5.2-1.3,10.5-1.3,15.9c0,9.1,1.3,18,3.7,26.3c5.8,20.1,18,37.4,34.3,49.6C2.1-24.8,3.4-16,3.4-6.9c0,5.4-0.5,10.7-1.3,15.9
			C-40-10.4-69.9-51.5-73.2-100c-0.2-3-0.3-6.1-0.3-9.1c0-9,0.9-17.8,2.6-26.2c12.1-59.3,64.6-103.9,127.5-103.9
			C128.5-239.3,186.7-181,186.7-109.1z"/>
		<path id="path847" class="st5" d="M-258.2-16c-14.3-2.8-27.4-8.8-38.6-17.2c2.4,8.4,3.7,17.2,3.7,26.3c0,5.4-0.5,10.7-1.3,15.9
			c-7.6,44.8-46.6,79-93.6,79c-47,0-86.1-34.2-93.6-79.1c-0.9-5.1-1.3-10.4-1.3-15.8c0-9.2,1.3-18.2,3.8-26.6
			c5.8-19.8,17.8-36.9,33.8-49c2.5-8.5,3.8-17.4,3.8-26.6c0-5.4-0.5-10.6-1.3-15.8c-41.9,19.5-71.6,60.5-75,108.9
			c-0.2,3-0.3,6.1-0.3,9.2c0,9,0.9,17.7,2.6,26.2c12.1,59.3,64.6,104,127.5,104c62.9,0,115.4-44.6,127.5-103.9
			c1.7-8.5,2.6-17.3,2.6-26.2C-257.9-9.9-258-13-258.2-16z"/>
		<path id="path849" class="st5" d="M-258.2-16c-14.3-2.8-27.4-8.8-38.6-17.2c-5.8-20.1-18-37.4-34.3-49.6
			c-11.2-8.4-24.3-14.4-38.6-17.2c-5.9-1.2-12-1.8-18.3-1.8c-6.4,0-12.6,0.6-18.6,1.8c0.2-3,0.3-6.1,0.3-9.2c0-9-0.9-17.7-2.6-26.2
			c6.8-1.1,13.8-1.7,20.9-1.7c7,0,13.9,0.6,20.6,1.6c11.9,1.9,23.3,5.4,33.9,10.3C-291.5-105.6-261.6-64.5-258.2-16z"/>
		<path id="path851" class="st6" d="M38.3-16C34.9-64.5,5-105.6-37-125.1c-0.9,5.2-1.3,10.5-1.3,15.9c0,9.1,1.3,18,3.7,26.3
			C-18.3-70.6-6.1-53.2-0.3-33.2C2.1-24.8,3.4-16,3.4-6.9c0,5.4-0.5,10.7-1.3,15.9c-7.6,44.8-46.6,79-93.6,79
			c-47,0-86.1-34.2-93.6-79.1c-0.9-5.1-1.3-10.4-1.3-15.8c0-9.2,1.3-18.2,3.8-26.6c-11.2,8.5-24.4,14.6-38.7,17.4
			c-0.2,3-0.3,6.1-0.3,9.2c0,9,0.9,17.7,2.6,26.2c12.1,59.3,64.6,104,127.5,104c62.9,0,115.4-44.6,127.5-103.9
			c1.7-8.5,2.6-17.3,2.6-26.2C38.6-9.9,38.5-13,38.3-16L38.3-16z"/>
		<path id="path853" class="st6" d="M-73.5-109.1c0,3.1,0.1,6.1,0.3,9.1c-5.9-1.2-12-1.8-18.3-1.8c-6.4,0-12.6,0.6-18.6,1.8
			c-14.3,2.8-27.5,8.9-38.7,17.4v0c-16,12.1-28,29.2-33.8,49c-11.2,8.5-24.4,14.6-38.7,17.4c3.4-48.3,33.1-89.4,75-108.9
			c10.6-4.9,22-8.5,33.9-10.4c6.8-1.1,13.8-1.7,20.9-1.7c7,0,13.9,0.6,20.6,1.6C-72.6-126.9-73.5-118.1-73.5-109.1L-73.5-109.1z"/>
		<path id="path855" d="M-148.8-82.5L-148.8-82.5c-5.8,19.8-17.8,36.9-33.8,49c-11.2,8.5-24.4,14.6-38.7,17.4
			c-6,1.2-12.2,1.8-18.6,1.8c-6.3,0-12.4-0.6-18.3-1.8c-14.3-2.8-27.4-8.8-38.6-17.2c-16.3-12.2-28.5-29.6-34.3-49.6
			c-11.2-8.4-24.3-14.4-38.6-17.2c3.4,48.5,33.3,89.6,75.3,109.1c10.6,4.9,22,8.4,33.9,10.3c6.7,1.1,13.6,1.6,20.6,1.6
			c7.1,0,14.1-0.6,20.9-1.7c11.9-1.9,23.3-5.5,33.9-10.4c41.9-19.5,71.6-60.5,75-108.9C-124.4-97.1-137.6-91-148.8-82.5z
			 M-239.9-204c47,0,86.1,34.2,93.6,79.1c10.6-4.9,22-8.5,33.9-10.4c-12.1-59.3-64.6-103.9-127.5-103.9
			c-62.9,0-115.4,44.6-127.5,103.9c11.9,1.9,23.3,5.4,33.9,10.3C-325.9-169.9-286.9-204-239.9-204z"/>
	</g>
</g>
</svg>
